<?xml version="1.0" encoding="iso-8859-1"?>
<!-- Generator: Adobe Illustrator 22.0.0, SVG Export Plug-In . SVG Version: 6.00 Build 0)  -->
<svg version="1.1" xmlns="http://www.w3.org/2000/svg" xmlns:xlink="http://www.w3.org/1999/xlink" x="0px" y="0px"
	 viewBox="0 0 1024 1024" style="enable-background:new 0 0 1024 1024;" xml:space="preserve">
<g id="&#x8BBE;&#x8BA1;">
	<path style="fill:#FF0000;" d="M992,992H32c-11.251,0-21.676-5.908-27.455-15.562s-6.065-21.632-0.752-31.55l480-896
		C489.363,38.49,500.203,32,512,32s22.637,6.49,28.207,16.889l480,896c5.313,9.918,5.027,21.896-0.752,31.55S1003.251,992,992,992z
		 M85.445,928h853.109L512,131.765L85.445,928z"/>
	<g>
		<circle style="fill:#FF0000;" cx="512" cy="816" r="48"/>
		<path style="fill:#FF0000;" d="M512,352L512,352c-34.452,0-61.546,29.446-58.685,63.779l24.028,288.332
			C478.845,722.135,493.913,736,512,736h0c18.087,0,33.155-13.865,34.657-31.889l24.028-288.332
			C573.546,381.446,546.452,352,512,352z"/>
	</g>
</g>
<g id="&#x53C2;&#x8003;&#x7EBF;_1_">
</g>
</svg>
